# xmcd CD database file
# Copyright (C) 1993-1998 Ti Kan
#
# Track frame offsets:
#  150
#  29985
#  60160
#  82915
#  103607
#  142272
#  180072
#  210362
#  242875
#  270645
#
# Disc length: 4025 seconds
#
# Revision: 1
# Processed by: cddbd v1.4b41PL1 Copyright (c) Steve Scherf et al.
# Submitted via: CDWizzard Release:4.35
#
DISCID=820fb70a
DTITLE=Three Degrees - The Greatest Hit Remixes
DYEAR=1900
DGENRE=
TTITLE0=Year Of Decision
TTITLE1=When Will I See You Again
TTITLE2=Jump The Gun
TTITLE3=The Runner
TTITLE4=T.S.O.P.
TTITLE5=Dirty Old Man
TTITLE6=My Simple Heart
TTITLE7=Dirty Old Man
TTITLE8=Giving Up, Giving In
TTITLE9=Red Light
EXTD=
EXTT0=
EXTT1=
EXTT2=
EXTT3=
EXTT4=
EXTT5=
EXTT6=
EXTT7=
EXTT8=
EXTT9=
PLAYORDER=
